<svg width="54" height="54" viewBox="0 0 54 54" fill="none" xmlns="http://www.w3.org/2000/svg">
<path d="M14.625 22.5C14.1232 22.5 13.6417 22.5765 13.1625 22.6463C13.3177 22.1243 13.4775 21.5933 13.734 21.1163C13.9905 20.4233 14.391 19.8225 14.7892 19.2173C15.1222 18.5625 15.7095 18.1193 16.1415 17.559C16.5937 17.0145 17.2102 16.6523 17.6985 16.2C18.1777 15.7275 18.8055 15.4913 19.305 15.1583C19.827 14.859 20.2815 14.5283 20.7675 14.3708L21.9802 13.8713L23.0467 13.428L21.9555 9.0675L20.6122 9.3915C20.1825 9.4995 19.6582 9.6255 19.062 9.77625C18.4522 9.88875 17.802 10.197 17.0775 10.4783C16.362 10.7978 15.534 11.0138 14.7645 11.5268C13.9905 12.0173 13.0972 12.4268 12.3097 13.0838C11.547 13.761 10.6267 14.3483 9.94725 15.21C9.20475 16.0155 8.47125 16.8615 7.902 17.8245C7.24275 18.7425 6.795 19.7505 6.3225 20.7473C5.895 21.744 5.55075 22.7633 5.2695 23.7533C4.73625 25.7378 4.49775 27.6233 4.4055 29.2365C4.329 30.852 4.374 32.1953 4.4685 33.1673C4.50225 33.6263 4.56525 34.0718 4.61025 34.38L4.6665 34.758L4.725 34.7445C5.12519 36.6139 6.04643 38.3317 7.38217 39.6994C8.7179 41.0671 10.4135 42.0286 12.2729 42.4729C14.1323 42.9171 16.0795 42.8258 17.8892 42.2096C19.6989 41.5934 21.2972 40.4775 22.4991 38.9909C23.7011 37.5043 24.4576 35.7078 24.6812 33.8092C24.9048 31.9106 24.5863 29.9875 23.7625 28.2623C22.9388 26.5371 21.6435 25.0804 20.0265 24.0607C18.4094 23.041 16.5367 22.4999 14.625 22.5ZM39.375 22.5C38.8732 22.5 38.3918 22.5765 37.9125 22.6463C38.0677 22.1243 38.2275 21.5933 38.484 21.1163C38.7405 20.4233 39.141 19.8225 39.5392 19.2173C39.8722 18.5625 40.4595 18.1193 40.8915 17.559C41.3437 17.0145 41.9602 16.6523 42.4485 16.2C42.9277 15.7275 43.5555 15.4913 44.055 15.1583C44.577 14.859 45.0315 14.5283 45.5175 14.3708L46.7302 13.8713L47.7967 13.428L46.7055 9.0675L45.3622 9.3915C44.9325 9.4995 44.4082 9.6255 43.812 9.77625C43.2022 9.88875 42.552 10.197 41.8275 10.4783C41.1143 10.8 40.284 11.0138 39.5145 11.529C38.7405 12.0195 37.8472 12.429 37.0597 13.086C36.297 13.7633 35.3767 14.3505 34.6972 15.21C33.9547 16.0155 33.2212 16.8615 32.652 17.8245C31.9927 18.7425 31.545 19.7505 31.0725 20.7473C30.645 21.744 30.3007 22.7633 30.0195 23.7533C29.4862 25.7378 29.2477 27.6233 29.1555 29.2365C29.079 30.852 29.124 32.1953 29.2185 33.1673C29.2522 33.6263 29.3152 34.0718 29.3602 34.38L29.4165 34.758L29.475 34.7445C29.8752 36.6139 30.7964 38.3317 32.1322 39.6994C33.4679 41.0671 35.1635 42.0286 37.0229 42.4729C38.8823 42.9171 40.8295 42.8258 42.6392 42.2096C44.4489 41.5934 46.0472 40.4775 47.2491 38.9909C48.4511 37.5043 49.2076 35.7078 49.4312 33.8092C49.6548 31.9106 49.3363 29.9875 48.5125 28.2623C47.6888 26.5371 46.3935 25.0804 44.7765 24.0607C43.1594 23.041 41.2867 22.4999 39.375 22.5Z" fill="#FCBF7C"/>
</svg>
